<svg xmlns="http://www.w3.org/2000/svg" viewBox="0 0 1000 1000" width="1000" height="1000"><rect width="1000" height="1000" rx="20" fill="#f6f2eb"/><path d="M514.1 807.5Q484.9 807.5 463.6 801.3Q442.3 795.2 428.1 789.3Q414.0 783.4 404.3 783.4Q394.1 783.4 385.9 787.4Q377.7 791.4 369.8 796.5Q362.0 801.6 353.8 805.8Q345.6 810.0 336.7 810.0Q323.6 810.0 315.4 802.4Q307.1 794.8 304.2 777.5L280.1 631.8Q278.4 619.9 283.9 611.3Q289.4 602.6 302.1 598.0Q316.4 592.9 327.0 598.2Q337.5 603.5 345.1 618.7Q372.2 669.4 397.5 697.2Q422.8 725.1 448.0 736.1Q473.1 747.1 499.7 747.1Q534.8 747.1 556.1 730.6Q577.4 714.1 577.4 684.1Q577.4 663.4 567.3 648.0Q557.2 632.6 527.2 618.3Q497.2 603.9 437.6 586.6Q371.7 567.2 331.8 539.9Q291.9 512.7 274.2 473.4Q256.4 434.1 256.4 380.1Q256.4 325.6 283.1 283.1Q309.7 240.7 359.1 216.6Q408.5 192.5 475.2 192.5Q509.4 192.5 533.7 198.4Q558.0 204.4 575.1 210.5Q592.2 216.6 604.9 216.6Q615.4 216.6 623.9 210.1Q632.3 203.5 642.0 196.8Q651.8 190.0 665.7 190.0Q679.2 190.0 688.3 198.4Q697.4 206.9 703.7 230.5L741.7 370.8Q745.9 386.0 740.5 397.8Q735.0 409.6 721.4 414.3Q707.5 418.5 696.9 413.2Q686.4 407.9 679.2 394.8Q651.8 340.8 620.9 309.7Q590.1 278.7 559.1 265.8Q528.0 252.9 498.9 252.9Q465.5 252.9 446.9 271.5Q428.3 290.1 428.3 319.2Q428.3 338.2 437.8 353.9Q447.3 369.5 476.5 385.5Q505.6 401.6 564.3 422.3Q629.0 444.7 668.0 471.9Q707.1 499.2 724.6 535.3Q742.1 571.4 742.1 620.4Q742.1 672.3 714.7 714.8Q687.2 757.2 636.3 782.3Q585.5 807.5 514.1 807.5Z" fill="#141210"/></svg>
